<svg xmlns="http://www.w3.org/2000/svg" viewBox="0 0 1000 91.02" preserveAspectRatio="none"><path d="M772,11c-32.4,4-58,9.51-58,9.51C685.3,26.69,659.67,34.32,658,35c-15.34,6.3-25.24,13.11-43,13-27.54-.18-37.37-16.79-56-11-19,5.91-19.53,26.54-35,27-13.47.4-16.5-15.14-36-18-1.32-.19-15.92-2.13-29,6-20.34,12.64-18.82,38.28-28,39-8.62.68-10.8-21.86-26-40-5.44-6.49-24.19-25.34-100-32a429.73,429.73,0,0,0-94,2C165,26.91,96.11,27.3,0,0V91H1000V0C894.78,1.07,813.3,5.92,772,11Z" transform="translate(0 0)"/></svg>