<?xml version="1.0" encoding="UTF-8"?>
<svg width="35px" height="37px" viewBox="0 0 35 37" version="1.1" xmlns="http://www.w3.org/2000/svg" xmlns:xlink="http://www.w3.org/1999/xlink">
    <!-- Generator: Sketch 46.2 (44496) - http://www.bohemiancoding.com/sketch -->
    <title>Donate</title>
    <desc>Created with Sketch.</desc>
    <defs></defs>
    <g id="Page-1" stroke="none" stroke-width="1" fill="none" fill-rule="evenodd">
        <g id="Donate" transform="translate(0.333333, 0.000000)" fill-rule="nonzero" fill="#333333">
            <path d="M16.999927,16.2863594 C16.7200472,16.2863594 16.4516223,16.1761543 16.2536781,15.9801699 L11.7751631,11.5443613 L3.33761803,11.5443613 C1.56837768,11.5443613 0.12906867,10.1186328 0.12906867,8.3664082 L0.12906867,3.17795313 C0.12906867,1.42572852 1.56852361,0 3.33761803,0 L30.6620901,0 C32.4313305,0 33.8706395,1.42572852 33.8706395,3.17795313 L33.8706395,8.3664082 C33.8706395,10.1187773 32.4311845,11.5443613 30.6620901,11.5443613 L22.224691,11.5443613 L17.746176,15.9801699 C17.5483047,16.1762266 17.2798798,16.2863594 16.999927,16.2863594 Z M3.33761803,2.09064453 C2.73225751,2.09064453 2.2398412,2.57836523 2.2398412,3.17795313 L2.2398412,8.3664082 C2.2398412,8.96599609 2.73225751,9.4537168 3.33761803,9.4537168 L12.2123476,9.4537168 C12.4922275,9.4537168 12.7606524,9.56392187 12.9585966,9.75990625 L16.9998541,13.762627 L21.0411116,9.75990625 C21.2391288,9.56392187 21.5074807,9.4537168 21.7873605,9.4537168 L30.6620901,9.4537168 C31.2674506,9.4537168 31.759867,8.96599609 31.759867,8.3664082 L31.759867,3.17795313 C31.759867,2.57836523 31.2674506,2.09064453 30.6620901,2.09064453 L3.33761803,2.09064453 Z" id="Shape"></path>
            <path d="M7.08279828,3.21813281 C8.05996996,3.21813281 8.82467811,3.66697461 8.82467811,4.87330469 L8.82467811,6.68977344 C8.82467811,7.89610352 8.05996996,8.34494531 7.08279828,8.34494531 L5.82954077,8.34494531 C5.53922747,8.34494531 5.34799571,8.1906582 5.34799571,8.0153418 L5.34799571,3.54773633 C5.34799571,3.37234766 5.53922747,3.21813281 5.82954077,3.21813281 L7.08279828,3.21813281 Z M6.4526309,4.1719668 L6.4526309,7.39103906 L7.08279828,7.39103906 C7.47941631,7.39103906 7.72011588,7.16672656 7.72011588,6.68970117 L7.72011588,4.87330469 C7.72011588,4.39635156 7.47941631,4.1719668 7.08279828,4.1719668 L6.4526309,4.1719668 Z" id="Shape"></path>
            <path d="M9.46921888,6.73175977 L9.46921888,4.87330469 C9.46921888,3.66697461 10.2269957,3.21813281 11.2040215,3.21813281 C12.1810472,3.21813281 12.9459013,3.66697461 12.9459013,4.87330469 L12.9459013,6.73175977 C12.9459013,7.93808984 12.1811931,8.38693164 11.2040215,8.38693164 C10.2268498,8.38693164 9.46921888,7.93801758 9.46921888,6.73175977 Z M11.841412,4.87330469 C11.841412,4.3893418 11.6007124,4.1719668 11.2041674,4.1719668 C10.8075494,4.1719668 10.573927,4.38926953 10.573927,4.87330469 L10.573927,6.73175977 C10.573927,7.21572266 10.8076223,7.43316992 11.2041674,7.43316992 C11.6006395,7.43316992 11.841412,7.21572266 11.841412,6.73175977 L11.841412,4.87330469 Z" id="Shape"></path>
            <path d="M16.1041073,8.05031836 L14.7587725,5.62371094 L14.7587725,8.0081875 C14.7587725,8.23264453 14.4826137,8.34487305 14.2064549,8.34487305 C13.9302961,8.34487305 13.6541373,8.2327168 13.6541373,8.0081875 L13.6541373,3.55481836 C13.6541373,3.32335156 13.9302232,3.21813281 14.2064549,3.21813281 C14.602927,3.21813281 14.7516953,3.25325391 15.0207768,3.76518359 L16.1678755,5.93221289 L16.1678755,3.54773633 C16.1678755,3.31626953 16.4439614,3.21813281 16.7200472,3.21813281 C16.996206,3.21813281 17.2723648,3.31626953 17.2723648,3.54773633 L17.2723648,8.0081875 C17.2723648,8.23264453 16.996279,8.34487305 16.7200472,8.34487305 C16.4652661,8.34487305 16.238721,8.29573242 16.1041073,8.05031836 Z" id="Shape"></path>
            <path d="M17.6833562,7.89603125 C17.6833562,7.87500195 17.6904335,7.84689063 17.6975107,7.81885156 L19.0145365,3.5406543 C19.0924592,3.29524023 19.4110086,3.17607422 19.7368541,3.17607422 C20.0625536,3.17607422 20.381176,3.2953125 20.4590258,3.5406543 L21.7832017,7.81885156 C21.790279,7.84696289 21.7973562,7.87500195 21.7973562,7.89603125 C21.7973562,8.15546484 21.3938069,8.34487305 21.0892661,8.34487305 C20.9121888,8.34487305 20.7705708,8.28872266 20.7281073,8.14158984 L20.4874077,7.26486328 L18.9933777,7.26486328 L18.7526781,8.14158984 C18.7102876,8.28879492 18.5685966,8.34487305 18.3915193,8.34487305 C18.0869056,8.34487305 17.6833562,8.15560938 17.6833562,7.89603125 Z M20.2537124,6.42318555 L19.736927,4.54370117 L19.2199957,6.42318555 L20.2537124,6.42318555 Z" id="Shape"></path>
            <path d="M24.8279528,3.21813281 C25.061721,3.21813281 25.1607296,3.47055664 25.1607296,3.7020957 C25.1607296,3.96853906 25.0404163,4.20000586 24.8279528,4.20000586 L23.8507811,4.20000586 L23.8507811,8.0081875 C23.8507811,8.23264453 23.5746953,8.34487305 23.2986094,8.34487305 C23.0224506,8.34487305 22.7462918,8.2327168 22.7462918,8.0081875 L22.7462918,4.20000586 L21.7691202,4.20000586 C21.5566567,4.20000586 21.4363433,3.96853906 21.4363433,3.7020957 C21.4363433,3.47055664 21.5353519,3.21813281 21.7691202,3.21813281 L24.8279528,3.21813281 Z" id="Shape"></path>
            <path d="M26.7046652,5.35712305 L27.766691,5.35712305 C27.9791545,5.35712305 28.0994678,5.56055078 28.0994678,5.78500781 C28.0994678,5.97441602 28.0003863,6.19887305 27.766691,6.19887305 L26.7046652,6.19887305 L26.7046652,7.39103906 L28.6022446,7.39103906 C28.8147082,7.39103906 28.9350215,7.61549609 28.9350215,7.87500195 C28.9350215,8.09931445 28.8359399,8.34487305 28.6022446,8.34487305 L26.0814292,8.34487305 C25.8407296,8.34487305 25.5998841,8.2327168 25.5998841,8.0081875 L25.5998841,3.55481836 C25.5998841,3.33036133 25.8405837,3.21813281 26.0814292,3.21813281 L28.6022446,3.21813281 C28.8359399,3.21813281 28.9350215,3.46369141 28.9350215,3.68800391 C28.9350215,3.9474375 28.8146352,4.1719668 28.6022446,4.1719668 L26.7046652,4.1719668 L26.7046652,5.35712305 Z" id="Shape"></path>
            <path d="M29.0315494,37 L4.96830472,37 C3.50783691,37 2.31973391,35.8231543 2.31973391,34.3766855 L2.31973391,20.4337559 C2.31973391,19.856498 2.79230472,19.3884336 3.37512017,19.3884336 C3.95793562,19.3884336 4.43050644,19.856498 4.43050644,20.4337559 L4.43050644,34.3767578 C4.43050644,34.6705176 4.6717897,34.9094277 4.96830472,34.9094277 L29.0316953,34.9094277 C29.3282833,34.9094277 29.5694936,34.6704453 29.5694936,34.3767578 L29.5694936,26.0237188 C29.5694936,25.4464609 30.0420644,24.9783965 30.6248798,24.9783965 C31.2076953,24.9783965 31.6802661,25.4464609 31.6802661,26.0237188 L31.6802661,34.3767578 C31.6801931,35.8231543 30.4920172,37 29.0315494,37 Z" id="Shape"></path>
            <path d="M30.1140043,21.4790781 L3.88592275,21.4790781 C1.77463948,21.4790781 0.0569828326,19.7778008 0.0569828326,17.6866504 C0.0569828326,15.5955 1.77463948,13.8942227 3.88592275,13.8942227 L9.92712446,13.8942227 C10.5099399,13.8942227 10.9825107,14.3622871 10.9825107,14.9395449 C10.9825107,15.5168027 10.5099399,15.9848672 9.92712446,15.9848672 L3.88592275,15.9848672 C2.93851931,15.9848672 2.16775536,16.7483535 2.16775536,17.6866504 C2.16775536,18.6249473 2.93859227,19.3884336 3.88592275,19.3884336 L30.1140773,19.3884336 C31.0614807,19.3884336 31.8322446,18.6249473 31.8322446,17.6866504 C31.8322446,16.7483535 31.0614077,15.9848672 30.1140773,15.9848672 L24.0728755,15.9848672 C23.4900601,15.9848672 23.0174893,15.5168027 23.0174893,14.9395449 C23.0174893,14.3622871 23.4900601,13.8942227 24.0728755,13.8942227 L30.1140773,13.8942227 C32.2253605,13.8942227 33.9430172,15.5955 33.9430172,17.6866504 C33.9430172,19.7778008 32.2252876,21.4790781 30.1140043,21.4790781 Z" id="Shape"></path>
        </g>
    </g>
</svg>